<?xml version="1.0" encoding="UTF-8" standalone="no"?>
<svg
   xmlns:dc="http://purl.org/dc/elements/1.1/"
   xmlns:cc="http://creativecommons.org/ns#"
   xmlns:rdf="http://www.w3.org/1999/02/22-rdf-syntax-ns#"
   xmlns:svg="http://www.w3.org/2000/svg"
   xmlns="http://www.w3.org/2000/svg"
   version="1.1"
   id="svg2"
   viewBox="0 0 907.08661 907.08661"
   height="256mm"
   width="256mm">
  <defs
     id="defs4" />
  <metadata
     id="metadata7">
    <rdf:RDF>
      <cc:Work
         rdf:about="">
        <dc:format>image/svg+xml</dc:format>
        <dc:type
           rdf:resource="http://purl.org/dc/dcmitype/StillImage" />
        <dc:title></dc:title>
      </cc:Work>
    </rdf:RDF>
  </metadata>
  <g
     transform="translate(0,-145.27559)"
     id="layer1">
    <g
       transform="translate(30.283869,2.7062562)"
       id="g5717">
      <path
         id="path5669"
         d="m 279.28463,722.85863 c -35.66931,50.18911 -72.36324,79.76943 -94.63198,66.57948 -22.26873,-13.18998 6.54741,-39.43152 36.05797,-113.07817 32.04569,-79.97334 34.35573,-174.06112 101.0431,-132.20675 58.01113,36.40897 -6.7998,128.51634 -42.46909,178.70544 z"
         style="opacity:1;fill:#4d4d4d;fill-opacity:1;stroke:none;stroke-width:5;stroke-linecap:butt;stroke-linejoin:miter;stroke-miterlimit:4;stroke-dasharray:none;stroke-opacity:1" />
      <g
         id="g4152"
         transform="matrix(1.1358017,0,0,1.1358017,32.934678,-113.33142)">
        <path
           id="path4136"
           d="M 605.30201,644.61573 C 622.4979,818.41001 581.23987,933.9633 413.99366,934.5989 141.75239,935.63352 171.46316,793.46985 195.83503,624.47801 220.2069,455.48618 236.89416,283.94414 416.67869,282.13678 580.16307,280.49327 585.9246,448.77335 605.30201,644.61573 Z"
           style="opacity:1;fill:#cccccc;fill-opacity:1;stroke:none;stroke-width:25;stroke-linecap:round;stroke-linejoin:round;stroke-miterlimit:4;stroke-dasharray:none;stroke-opacity:1" />
        <path
           style="opacity:1;fill:#666666;fill-opacity:1;stroke:none;stroke-width:25;stroke-linecap:round;stroke-linejoin:round;stroke-miterlimit:4;stroke-dasharray:none;stroke-opacity:1"
           d="m 416.71289,284.13672 c -49.94335,-0.56515 -102.76914,17.25657 -135.14648,56.85742 -37.39708,44.06609 -52.50535,101.80531 -63.75975,157.18596 -7.18149,36.56434 -12.94629,73.43105 -17.12893,110.39217 5.53575,3.41587 12.67922,2.67599 18.16211,6.39062 46.88197,19.32757 78.90074,64.21955 92.70911,111.839 18.98985,63.04632 9.99044,134.56242 -26.17786,189.74889 3.51458,3.3 9.53202,2.17378 13.84942,4.26259 51.81402,12.80142 106.25317,14.26592 159.15449,8.64561 43.19942,-6.38444 86.7886,-27.07536 111.43359,-64.52929 29.79993,-43.6471 36.6843,-98.02686 36.98926,-149.59961 -0.19155,-65.71284 -10.10864,-130.81711 -16.47861,-196.18301 -7.27764,-58.57825 -16.67625,-118.91058 -46.81143,-170.57285 -19.00137,-30.66996 -50.34639,-54.68497 -86.22656,-60.77344 -13.21861,-2.7452 -27.0189,-3.79736 -40.56836,-3.66406 z"
           id="path4145" />
      </g>
      <path
         style="opacity:1;fill:#ffcc00;fill-opacity:1;stroke:#666666;stroke-width:4.36002207;stroke-linecap:butt;stroke-linejoin:miter;stroke-miterlimit:0;stroke-dasharray:none;stroke-opacity:1"
         id="path4143"
         d="m 207.52897,262.38814 c 2.00179,2.00179 -14.5632,66.63101 -15.2959,69.3655 -0.73271,2.73449 -18.70162,66.98754 -21.43611,67.72024 -2.73449,0.73271 -50.42255,-45.92761 -52.42433,-47.92939 -2.00179,-2.00179 -48.662103,-49.68985 -47.929399,-52.42434 0.732704,-2.73449 64.985749,-20.7034 67.720239,-21.4361 2.73449,-0.73271 67.36372,-17.29769 69.3655,-15.29591 z"
         transform="matrix(-1.5199434,-0.10247932,1.339261,-0.77493997,90.438714,683.7871)" />
      <g
         id="g4162"
         transform="matrix(1.1358017,0,0,1.1358017,32.934678,-113.33142)">
        <circle
           r="22.27932"
           cy="377.6171"
           cx="344.79901"
           id="path4156"
           style="opacity:1;fill:#e6e6e6;fill-opacity:1;stroke:none;stroke-width:25;stroke-linecap:round;stroke-linejoin:round;stroke-miterlimit:4;stroke-dasharray:none;stroke-opacity:1" />
        <circle
           style="opacity:1;fill:#4d4d4d;fill-opacity:1;stroke:none;stroke-width:25;stroke-linecap:round;stroke-linejoin:round;stroke-miterlimit:4;stroke-dasharray:none;stroke-opacity:1"
           id="circle4160"
           cx="344.79901"
           cy="377.6171"
           r="14.589936" />
      </g>
      <g
         id="g4166"
         transform="matrix(1.1358017,0,0,1.1358017,-47.371974,-129.09453)">
        <circle
           style="opacity:1;fill:#e6e6e6;fill-opacity:1;stroke:none;stroke-width:25;stroke-linecap:round;stroke-linejoin:round;stroke-miterlimit:4;stroke-dasharray:none;stroke-opacity:1"
           id="circle4168"
           cx="344.79901"
           cy="377.6171"
           r="22.27932" />
        <circle
           r="14.589936"
           cy="377.6171"
           cx="344.79901"
           id="circle4170"
           style="opacity:1;fill:#4d4d4d;fill-opacity:1;stroke:none;stroke-width:25;stroke-linecap:round;stroke-linejoin:round;stroke-miterlimit:4;stroke-dasharray:none;stroke-opacity:1" />
      </g>
      <rect
         transform="matrix(0.95190147,-0.3064043,-0.24660353,0.96911645,0,0)"
         ry="0"
         y="1164.3005"
         x="560.16705"
         height="11.256502"
         width="166.31641"
         id="rect5626"
         style="opacity:1;fill:#666666;fill-opacity:1;stroke:none;stroke-width:5;stroke-linecap:butt;stroke-linejoin:miter;stroke-miterlimit:4;stroke-dasharray:none;stroke-opacity:1" />
      <rect
         style="opacity:1;fill:#666666;fill-opacity:1;stroke:none;stroke-width:5;stroke-linecap:butt;stroke-linejoin:miter;stroke-miterlimit:4;stroke-dasharray:none;stroke-opacity:1"
         id="rect5628"
         width="166.31641"
         height="11.256502"
         x="784.85229"
         y="1250.7251"
         ry="0"
         transform="matrix(0.95190147,-0.3064043,-0.24660353,0.96911645,0,0)" />
      <g
         id="g5644"
         transform="matrix(1.1358017,0,0,1.1358017,243.20626,-77.784074)">
        <rect
           y="879.15771"
           x="168.25087"
           height="53.046001"
           width="6.6307502"
           id="rect5632"
           style="opacity:1;fill:#ffcc00;fill-opacity:1;stroke:none;stroke-width:5;stroke-linecap:butt;stroke-linejoin:miter;stroke-miterlimit:4;stroke-dasharray:none;stroke-opacity:1" />
        <rect
           transform="matrix(0.9161883,-0.40074804,0.40074804,0.9161883,0,0)"
           style="opacity:1;fill:#ffcc00;fill-opacity:1;stroke:none;stroke-width:5;stroke-linecap:butt;stroke-linejoin:miter;stroke-miterlimit:4;stroke-dasharray:none;stroke-opacity:1"
           id="rect5634"
           width="6.6307502"
           height="53.046001"
           x="-219.75897"
           y="872.25433" />
        <rect
           transform="matrix(0.92650966,0.37627098,-0.37627098,0.92650966,0,0)"
           y="747.98706"
           x="507.43582"
           height="53.046001"
           width="6.6307502"
           id="rect5636"
           style="opacity:1;fill:#ffcc00;fill-opacity:1;stroke:none;stroke-width:5;stroke-linecap:butt;stroke-linejoin:miter;stroke-miterlimit:4;stroke-dasharray:none;stroke-opacity:1" />
      </g>
      <g
         id="g5649"
         transform="matrix(1.1358017,0,0,1.1358017,51.310848,-91.641515)">
        <rect
           style="opacity:1;fill:#ffcc00;fill-opacity:1;stroke:none;stroke-width:5;stroke-linecap:butt;stroke-linejoin:miter;stroke-miterlimit:4;stroke-dasharray:none;stroke-opacity:1"
           id="rect5651"
           width="6.6307502"
           height="53.046001"
           x="168.25087"
           y="879.15771" />
        <rect
           y="872.25433"
           x="-219.75897"
           height="53.046001"
           width="6.6307502"
           id="rect5653"
           style="opacity:1;fill:#ffcc00;fill-opacity:1;stroke:none;stroke-width:5;stroke-linecap:butt;stroke-linejoin:miter;stroke-miterlimit:4;stroke-dasharray:none;stroke-opacity:1"
           transform="matrix(0.9161883,-0.40074804,0.40074804,0.9161883,0,0)" />
        <rect
           style="opacity:1;fill:#ffcc00;fill-opacity:1;stroke:none;stroke-width:5;stroke-linecap:butt;stroke-linejoin:miter;stroke-miterlimit:4;stroke-dasharray:none;stroke-opacity:1"
           id="rect5655"
           width="6.6307502"
           height="53.046001"
           x="507.43582"
           y="747.98706"
           transform="matrix(0.92650966,0.37627098,-0.37627098,0.92650966,0,0)" />
      </g>
      <path
         style="opacity:1;fill:#4d4d4d;fill-opacity:1;stroke:none;stroke-width:5;stroke-linecap:butt;stroke-linejoin:miter;stroke-miterlimit:4;stroke-dasharray:none;stroke-opacity:1"
         d="m 595.84355,721.35287 c -5.11235,61.36048 -21.60899,105.51138 -47.49086,105.51139 -25.88189,1e-5 -14.46178,-37.26352 -26.60288,-115.6682 -13.18409,-85.14014 -59.1457,-167.27038 19.56192,-165.24427 68.46749,1.7625 59.64418,114.0406 54.53182,175.40108 z"
         id="path5657" />
    </g>
  </g>
</svg>
